<?xml version="1.0" encoding="utf-8"?>
<!-- Generator: Adobe Illustrator 24.1.2, SVG Export Plug-In . SVG Version: 6.00 Build 0)  -->
<svg version="1.1" xmlns="http://www.w3.org/2000/svg" xmlns:xlink="http://www.w3.org/1999/xlink" x="0px" y="0px"
	 viewBox="0 0 500 500" style="enable-background:new 0 0 500 500;" xml:space="preserve">
<style type="text/css">
	.st0{fill:#FBD23B;}
	.st1{fill:#FCEE21;}
	.st2{fill:#FBDB3B;}
	.st3{fill:#662D91;}
</style>
<g id="Слой_6">
	<circle class="st0" cx="250" cy="250" r="218"/>
	<circle class="st1" cx="251.69" cy="251.69" r="194.34"/>
</g>
<g id="Слой_1">
	<path class="st2" d="M123.02,126.67c0,13.62,0,27.25,0,40.87h32.7v171.66h-32.7V376h69.48v53.13h36.79V376h32.7v53.13h36.79V376
		h28.61c7.63-3.02,24.3-10.85,36.79-28.61c4.18-5.95,22.66-32.24,12.26-61.31c-8.09-22.62-30.67-38.56-57.22-40.87l20.44-8.17
		c12.26-8.17,16.48-19.98,20.44-32.7c8.7-27.97-10.85-51.49-12.26-53.13c-18.64-21.69-45.79-24.71-49.05-24.52V77.63h-36.79v49.05
		h-32.7V77.63h-36.79v49.05H123.02"/>
</g>
<g id="Слой_5">
	<path class="st3" d="M381.81,330.98c-25.59,38.29-69.25,63.51-118.77,63.51c-12.27,0-24.13-1.55-35.45-4.43
		c-61.72-15.75-107.34-71.72-107.34-138.37c0-13.79,1.96-27.11,5.61-39.71c12.07-41.74,42.65-75.64,82.27-92.17
		c11.9-4.93,24.61-8.31,37.85-9.87c5.61-0.71,11.25-1.05,17.07-1.05c3.14,0,6.22,0.14,9.36,0.3c1.18,4.36,1.89,9.4,1.89,14.74
		c0,5.48-0.74,10.65-2.03,15.07c-0.54-0.03-1.15-0.03-1.72-0.03c-8.08,0-15.92,0.78-23.56,2.23c-22.98,4.53-43.74,15.45-60.3,30.93
		c-14.06,13.08-25.11,29.44-32.04,47.86c2.53,1.01,4.97,2.1,7.37,3.24c5.31-13.82,13.05-26.4,22.71-37.21
		c17.07-19.06,40.02-32.55,65.97-37.45c5.98-1.12,12.13-1.79,18.42-1.99c1.08-0.03,2.16-0.03,3.31-0.03c4.56,0,9.09,0.27,13.52,0.81
		c10.38,1.18,20.28,3.72,29.64,7.47c-0.1,9.6-2.47,18.12-6.12,23.39c-6.46-2.3-13.28-3.89-20.28-4.66
		c-3.55-0.44-7.13-0.64-10.75-0.64c-41.3,0-76.42,26.94-89.16,64.42c-0.34,0.91-0.61,1.79-0.88,2.67c0.74,0.61,1.49,1.25,2.23,1.86
		c1.35,1.18,2.7,2.4,4.02,3.58c9.94-36.16,42.65-62.73,81.49-62.73c19.27,0,37.04,6.56,51.27,17.61c7.6,5.88,14.16,13.01,19.4,21.12
		c-1.42,2.1-3.04,4.26-4.83,6.32c-4.87,5.51-10.24,9.73-15.34,12.24c-3.21-7.64-8.11-14.36-14.2-19.81
		c-6.12-5.44-13.38-9.53-21.43-11.86c-0.57-0.2-1.15-0.37-1.72-0.51c-4.46-1.15-9.16-1.76-13.96-1.76
		c-30.79,0-55.77,24.98-55.77,55.77s24.98,55.77,55.77,55.77c27.44,0,50.26-19.84,54.89-45.97c0.51-2.67,0.78-5.41,0.84-8.21
		c0.03-0.54,0.03-1.05,0.03-1.59c0-2.26-0.14-4.53-0.44-6.73c3.85-1.55,8.31-2.7,13.11-3.31c5.48-0.71,10.75-0.57,15.31,0.14
		c1.08,5.41,1.62,10.95,1.62,16.66c0,3.38-0.17,6.73-0.57,10c-3.01,26.67-18.12,49.65-39.61,63.14c2.1,0.1,4.22,0.14,6.39,0.14
		c4.39,0,8.75-0.17,13.01-0.61c10.27-0.88,20.21-2.91,29.71-5.88c1.55-0.51,3.11-0.98,4.63-1.55
		C376.81,332.98,379.35,332,381.81,330.98z"/>
</g>
<g id="Слой_7">
</g>
</svg>
